<?xml version="1.0" ?><svg style="enable-background:new 0 0 64 64;" version="1.1" viewBox="0 0 64 64" xml:space="preserve" xmlns="http://www.w3.org/2000/svg" xmlns:xlink="http://www.w3.org/1999/xlink"><style type="text/css">
	.st0{fill:#75C6A8;}
	.st1{fill:#57B5B5;}
	.st2{fill:#263047;}
	.st3{fill:#DB7158;}
	.st4{fill:none;stroke:#263047;stroke-width:0.5;stroke-linecap:round;stroke-miterlimit:10;}
	.st5{fill:none;stroke:#EA8B78;stroke-width:2;stroke-linecap:round;stroke-miterlimit:10;}
	.st6{fill:#E89715;}
	.st7{fill:none;stroke:#263047;stroke-linecap:round;stroke-miterlimit:10;}
	.st8{fill:none;stroke:#263047;stroke-width:0.5;stroke-linecap:round;stroke-linejoin:round;stroke-miterlimit:10;}
	.st9{fill:#456BA8;}
	.st10{fill:#9EC6B8;}
	.st11{fill:#C14F46;}
	.st12{fill:#BFD8D0;}
	.st13{fill:#E57417;}
	.st14{fill:none;stroke:#9EC6B8;stroke-width:0.75;stroke-linecap:round;stroke-linejoin:round;stroke-miterlimit:10;}
	.st15{fill:#FFFFFF;}
	.st16{fill:#D8EAE3;}
	.st17{fill:none;stroke:#DB7158;stroke-linecap:round;stroke-miterlimit:10;}
	.st18{fill:none;stroke:#BFD8D0;stroke-width:0.5;stroke-linecap:round;stroke-miterlimit:10;}
	.st19{fill:none;stroke:#263047;stroke-width:0.5;stroke-linecap:round;stroke-miterlimit:10;stroke-dasharray:1.0458,1.0458;}
	.st20{fill:#75C6A8;stroke:#75C6A8;stroke-width:0.25;stroke-linejoin:round;stroke-miterlimit:10;}
	.st21{fill:#EF8873;}
	.st22{fill:none;stroke:#263047;stroke-width:0.5;stroke-miterlimit:10;}
	.st23{fill:none;stroke:#263047;stroke-width:0.5;stroke-linecap:round;stroke-miterlimit:10;stroke-dasharray:1.8125,1.8125;}
	.st24{fill:none;stroke:#263047;stroke-linecap:round;stroke-miterlimit:10;stroke-dasharray:1.912,1.912;}
	.st25{fill:none;}
	.st26{fill:none;stroke:#EA8B78;stroke-linecap:round;stroke-miterlimit:10;}
	.st27{fill:none;stroke:#263047;stroke-width:3;stroke-miterlimit:10;}
	.st28{fill:none;stroke:#BFD8D0;stroke-miterlimit:10;}
	.st29{fill:none;stroke:#BFD8D0;stroke-width:0.5;stroke-miterlimit:10;}
	.st30{fill:none;stroke:#9EC6B8;stroke-width:0.5;stroke-miterlimit:10;}
	.st31{fill:none;stroke:#75C6A8;stroke-width:0.5;stroke-miterlimit:10;}
	.st32{fill:none;stroke:#F9F9F9;stroke-width:0.5;stroke-linecap:round;stroke-linejoin:round;stroke-miterlimit:10;}
	.st33{fill:none;stroke:#9EC6B8;stroke-width:0.5;stroke-linecap:round;stroke-linejoin:round;stroke-miterlimit:10;}
	.st34{fill:#EA8B78;}
	.st35{fill:none;stroke:#EA8B78;stroke-width:0.75;stroke-linecap:round;stroke-miterlimit:10;}
</style><g id="Layer_1"/><g id="artworks"><g><path class="st6" d="M51.1,38.6l2.3-3.9c0.9-1.6,1.6-3.4,1.8-5.3l0.6-4.9c0.1-1.1-0.5-2.2-1.5-2.5c-1.3-0.4-2.7,0.5-2.8,1.8L51,27    c-0.1,0.7-0.6,1.3-1.2,1.5v-1.2v-1.5v-5.7l0-8.5c0-1-0.7-1.9-1.7-1.9c-1.1-0.1-1.9,0.8-1.9,1.8v7.9c0,0.4-0.3,0.7-0.7,0.7l0,0    c-0.4,0-0.7-0.3-0.7-0.7l0-9.4c0-1-0.7-1.9-1.7-1.9c-1.1-0.1-1.9,0.8-1.9,1.8v9.5c0,0.4-0.3,0.7-0.7,0.7l0,0    c-0.4,0-0.7-0.3-0.7-0.7l0-8.9c0-1-0.7-1.9-1.7-1.9c-1.1-0.1-1.9,0.8-1.9,1.8v9c0,0.4-0.3,0.7-0.7,0.7h0c-0.4,0-0.7-0.3-0.7-0.7    l0-5.2c0-1-0.7-1.9-1.7-1.9c-1.1-0.1-1.9,0.8-1.9,1.8v6.1v7.2V28v12.9v6.7h19.1v-4C49.7,41.8,50.2,40.1,51.1,38.6z"/><path class="st13" d="M47.4,38.9c-3.7,2.2-7.8,2-9.2-0.3c-1.3-2.3-0.1-7.6,3.7-9.8s8.5-0.3,9.8,2C53,33.1,51.1,36.8,47.4,38.9z"/><path class="st6" d="M55.1,29.4l0.6-4.9c0.1-1.2-0.6-2.3-1.8-2.6c-1.3-0.2-2.4,0.7-2.6,1.9L51,27c-0.1,0.8-0.7,1.4-1.4,1.5l0,0    c-5.3,1-9.5,4.9-10.8,10.1l-0.5,2.2h11.5l3.6-6.2C54.3,33.1,54.9,31.3,55.1,29.4z"/><path class="st12" d="M43.2,37.7c1.7-0.8,2.9-2.6,2.9-4.6c0-2.1-1.3-3.9-3-4.7c1.1-1.3,1.8-2.9,1.8-4.7c0-4-3.2-7.2-7.2-7.2    c-1.8,0-3.4,0.7-4.7,1.7c-0.6-0.3-1.3-0.5-2.1-0.5c-0.5,0-1,0.1-1.5,0.3c-1.2-2.9-4.1-5-7.5-5c-4.5,0-8.1,3.6-8.1,8.1    c0,2.1,0.8,4.1,2.2,5.5c-1.9,0.1-3.5,1.7-3.5,3.7c0,2.1,1.7,3.7,3.7,3.7s3.7-1.7,3.7-3.7c0-0.5-0.1-1-0.3-1.4    c0.7,0.2,1.5,0.3,2.3,0.3c2.7,0,5.1-1.3,6.5-3.3c0.7,0.5,1.5,0.7,2.4,0.7c0,0,0.1,0,0.1,0c0.9,2.2,2.9,3.8,5.3,4.3    c-0.4,0.7-0.6,1.5-0.6,2.4c0,1.6,0.7,3,1.8,3.9c-1.6,0.8-2.7,2.5-2.7,4.4c0,2.8,2.2,5,5,5s5-2.2,5-5C44.9,40,44.2,38.6,43.2,37.7z    "/><path class="st4" d="M13.9,21c0,2.1,0.8,4.1,2.2,5.5"/><path class="st4" d="M33,18.2c-0.6-0.3-1.3-0.5-2.1-0.5c-0.5,0-1,0.1-1.5,0.3c-1.2-2.9-4.1-5-7.5-5"/><path class="st4" d="M43.1,28.4c1.1-1.3,1.8-2.9,1.8-4.7c0-4-3.2-7.2-7.2-7.2"/><path class="st4" d="M43.2,37.7c1.7-0.8,2.9-2.6,2.9-4.6"/><path class="st4" d="M12.6,30.2c0,2.1,1.7,3.7,3.7,3.7s3.7-1.7,3.7-3.7c0-0.5-0.1-1-0.3-1.4c0.7,0.2,1.5,0.3,2.3,0.3    c2.7,0,5.1-1.3,6.5-3.3c0.7,0.5,1.5,0.7,2.4,0.7c0,0,0.1,0,0.1,0c0.9,2.2,2.9,3.8,5.3,4.3c-0.4,0.7-0.6,1.5-0.6,2.4    c0,1.6,0.7,3,1.8,3.9c-1.6,0.8-2.7,2.5-2.7,4.4c0,2.8,2.2,5,5,5s5-2.2,5-5"/><rect class="st2" height="21.9" transform="matrix(-1.836970e-16 1 -1 -1.836970e-16 94.0423 14.4922)" width="13.5" x="33" y="43.3"/><line class="st4" x1="28.8" x2="50.7" y1="47.5" y2="47.5"/></g><g><g><path class="st6" d="M40,33.9l-1.5-2.1l0.9-2.3l-19.1-7.8l-5.2,12.9c-0.5,1.3-0.6,2.7-0.3,4.1l0,0c0.4,1.4,0.3,2.8-0.3,4.1     l-2,4.9l16.7,6.8l2-5c0.8-1.9,2-3.6,3.6-4.9l0,0c1.5-1.2,2.7-2.7,3.6-4.5l1.7-3.4C40.6,35.7,40.6,34.7,40,33.9z"/><path class="st6" d="M32.5,46.5l2.4-2c1.5-1.2,2.7-2.7,3.6-4.5l1.7-3.4c0.4-0.9,0.3-1.9-0.2-2.7L38,31"/><ellipse class="st13" cx="34.9" cy="35" rx="2.5" ry="3.1" transform="matrix(0.3756 -0.9268 0.9268 0.3756 -10.668 54.2626)"/><path class="st6" d="M19.3,31.1L19.3,31.1c-1.3-0.5-2-2-1.4-3.4L21,20c0.5-1.3,2-2,3.4-1.4l0,0c1.3,0.5,2,2,1.4,3.4l-3.2,7.8     C22.1,31,20.6,31.7,19.3,31.1z"/><path class="st6" d="M24.6,31.8L24.6,31.8c-1.3-0.5-2-2-1.4-3.4l3.2-7.8c0.5-1.3,2-2,3.4-1.4l0,0c1.3,0.5,2,2,1.4,3.4L28,30.4     C27.4,31.7,25.9,32.3,24.6,31.8z"/><path class="st6" d="M29.4,33.4L29.4,33.4c-1.3-0.5-2-2-1.4-3.4l3.2-7.8c0.5-1.3,2-2,3.4-1.4l0,0c1.3,0.5,2,2,1.4,3.4L32.8,32     C32.3,33.3,30.8,33.9,29.4,33.4z"/><path class="st6" d="M34.2,35.4L34.2,35.4c-1.3-0.5-2-2-1.4-3.4l3.2-7.8c0.5-1.3,2-2,3.4-1.4l0,0c1.3,0.5,2,2,1.4,3.4l-3.2,7.8     C37.1,35.3,35.6,35.9,34.2,35.4z"/><path class="st6" d="M20.3,21.7l-5.2,12.9c-0.5,1.3-0.6,2.7-0.3,4.1l0,0c0.4,1.4,0.3,2.8-0.3,4.1l-2,4.9l16.7,6.8l4.1-10.1l0.8-2     l5.2-12.9L20.3,21.7z"/><polygon class="st2" points="5.2,61 11.4,45.7 31.7,53.9 28.8,61    "/><line class="st4" x1="11.4" x2="31.7" y1="45.7" y2="53.9"/></g><path class="st4" d="M31.2,22.1c0.2-1.2-0.4-2.4-1.6-2.9"/><path class="st4" d="M36,24.2c0.5-1.3-0.1-2.8-1.4-3.4"/><path class="st4" d="M28.8,61l2.9-7.1l-1.9-0.8l1.5-3.7c0.8-1.9,2-3.6,3.6-4.9v0c0,0,0.1-0.1,0.1-0.1c1.6-1.1,2.7-2.8,3.6-4.6    l1.6-3.2c0.2-0.4,0.3-0.9,0.3-1.4c0-0.4-0.1-0.7-0.3-1c-0.1-0.1-0.1-0.2-0.2-0.3l-1-1.4c-0.3-0.4-0.4-1-0.2-1.5l1.9-4.8    c0.5-1.3-0.1-2.8-1.4-3.4"/><path class="st4" d="M15.1,34.6c-0.3,0.7-0.4,1.3-0.5,2c0,0.7,0,1.4,0.2,2.1c0.1,0.3,0.1,0.7,0.2,1c0.1,1-0.1,2.1-0.4,3.1    l-1.5,3.6l-1.7-0.7L5.2,61"/><line class="st4" x1="37.2" x2="40.8" y1="34.9" y2="26.1"/><path class="st4" d="M25.8,21.9c0.5-1.3-0.1-2.8-1.4-3.4"/></g><circle class="st10" cx="9.4" cy="14.7" r="1.4"/><circle class="st12" cx="13.5" cy="11" r="0.4"/><circle class="st12" cx="19.7" cy="10.4" r="0.6"/><circle class="st12" cx="10" cy="21.1" r="1.4"/><circle class="st12" cx="49.8" cy="33.1" r="1.1"/><circle class="st12" cx="52.8" cy="14.8" r="1.6"/><circle class="st12" cx="56.1" cy="43.6" r="1.8"/><circle class="st10" cx="55.5" cy="39.2" r="0.5"/></g></svg>