<?xml version="1.0" ?><svg style="enable-background:new 0 0 64 64;" version="1.1" viewBox="0 0 64 64" xml:space="preserve" xmlns="http://www.w3.org/2000/svg" xmlns:xlink="http://www.w3.org/1999/xlink"><style type="text/css">
	.st0{fill:#75C6A8;}
	.st1{fill:#57B5B5;}
	.st2{fill:#263047;}
	.st3{fill:#DB7158;}
	.st4{fill:none;stroke:#263047;stroke-width:0.5;stroke-linecap:round;stroke-miterlimit:10;}
	.st5{fill:none;stroke:#EA8B78;stroke-width:2;stroke-linecap:round;stroke-miterlimit:10;}
	.st6{fill:#E89715;}
	.st7{fill:none;stroke:#263047;stroke-linecap:round;stroke-miterlimit:10;}
	.st8{fill:none;stroke:#263047;stroke-width:0.5;stroke-linecap:round;stroke-linejoin:round;stroke-miterlimit:10;}
	.st9{fill:#456BA8;}
	.st10{fill:#9EC6B8;}
	.st11{fill:#C14F46;}
	.st12{fill:#BFD8D0;}
	.st13{fill:#E57417;}
	.st14{fill:none;stroke:#9EC6B8;stroke-width:0.75;stroke-linecap:round;stroke-linejoin:round;stroke-miterlimit:10;}
	.st15{fill:#FFFFFF;}
	.st16{fill:#D8EAE3;}
	.st17{fill:none;stroke:#DB7158;stroke-linecap:round;stroke-miterlimit:10;}
	.st18{fill:none;stroke:#BFD8D0;stroke-width:0.5;stroke-linecap:round;stroke-miterlimit:10;}
	.st19{fill:none;stroke:#263047;stroke-width:0.5;stroke-linecap:round;stroke-miterlimit:10;stroke-dasharray:1.0458,1.0458;}
	.st20{fill:#75C6A8;stroke:#75C6A8;stroke-width:0.25;stroke-linejoin:round;stroke-miterlimit:10;}
	.st21{fill:#EF8873;}
	.st22{fill:none;stroke:#263047;stroke-width:0.5;stroke-miterlimit:10;}
	.st23{fill:none;stroke:#263047;stroke-width:0.5;stroke-linecap:round;stroke-miterlimit:10;stroke-dasharray:1.8125,1.8125;}
	.st24{fill:none;stroke:#263047;stroke-linecap:round;stroke-miterlimit:10;stroke-dasharray:1.912,1.912;}
	.st25{fill:none;}
	.st26{fill:none;stroke:#EA8B78;stroke-linecap:round;stroke-miterlimit:10;}
	.st27{fill:none;stroke:#263047;stroke-width:3;stroke-miterlimit:10;}
	.st28{fill:none;stroke:#BFD8D0;stroke-miterlimit:10;}
	.st29{fill:none;stroke:#BFD8D0;stroke-width:0.5;stroke-miterlimit:10;}
	.st30{fill:none;stroke:#9EC6B8;stroke-width:0.5;stroke-miterlimit:10;}
	.st31{fill:none;stroke:#75C6A8;stroke-width:0.5;stroke-miterlimit:10;}
	.st32{fill:none;stroke:#F9F9F9;stroke-width:0.5;stroke-linecap:round;stroke-linejoin:round;stroke-miterlimit:10;}
	.st33{fill:none;stroke:#9EC6B8;stroke-width:0.5;stroke-linecap:round;stroke-linejoin:round;stroke-miterlimit:10;}
	.st34{fill:#EA8B78;}
	.st35{fill:none;stroke:#EA8B78;stroke-width:0.75;stroke-linecap:round;stroke-miterlimit:10;}
</style><g id="Layer_1"/><g id="artworks"><g><rect class="st12" height="5.7" width="2.7" x="10.9" y="50.5"/><line class="st4" x1="13.6" x2="13.6" y1="50.5" y2="56.2"/></g><g><rect class="st12" height="9.9" width="2.7" x="15.5" y="46.3"/><line class="st4" x1="18.2" x2="18.2" y1="46.3" y2="56.2"/></g><g><rect class="st12" height="8.1" width="2.7" x="20.2" y="48.1"/><line class="st4" x1="22.9" x2="22.9" y1="48.1" y2="56.2"/></g><g><rect class="st10" height="12.6" width="2.7" x="24.9" y="43.5"/><line class="st4" x1="27.6" x2="27.6" y1="43.5" y2="56.2"/></g><path class="st0" d="M46,39.2H6.8c-2.1,0-3.8-1.7-3.8-3.8V6.8C3,4.7,4.7,3,6.8,3H46c2.1,0,3.8,1.7,3.8,3.8v28.6   C49.8,37.4,48.1,39.2,46,39.2z"/><path class="st4" d="M49.8,9.1v26.3c0,2.1-1.7,3.8-3.8,3.8H6.8"/><line class="st4" x1="30.5" x2="9.5" y1="56.2" y2="56.2"/><path class="st2" d="M22.5,27.8H12.2c-0.6,0-1.1-0.5-1.1-1.1V16.4c0-0.6,0.5-1.1,1.1-1.1h10.3c0.6,0,1.1,0.5,1.1,1.1v10.3   C23.6,27.3,23.1,27.8,22.5,27.8z"/><path class="st12" d="M48.1,3H4.8C3.8,3,3,3.8,3,4.7v3.4h46.8V4.7C49.8,3.8,49,3,48.1,3z"/><line class="st4" x1="3" x2="49.8" y1="8.1" y2="8.1"/><g><line class="st4" x1="26.7" x2="35" y1="12.6" y2="12.6"/><line class="st4" x1="26.7" x2="42.6" y1="15.2" y2="15.2"/><line class="st4" x1="26.7" x2="42.6" y1="17.8" y2="17.8"/><line class="st4" x1="26.7" x2="42.6" y1="20.5" y2="20.5"/><line class="st4" x1="26.7" x2="42.6" y1="23.1" y2="23.1"/></g><g><line class="st4" x1="8.6" x2="13.4" y1="30.2" y2="30.2"/><line class="st4" x1="8.6" x2="17.8" y1="32.8" y2="32.8"/><line class="st4" x1="8.6" x2="17.8" y1="35.4" y2="35.4"/></g><path class="st3" d="M19.9,25.2H9.6c-0.6,0-1.1-0.5-1.1-1.1V13.8c0-0.6,0.5-1.1,1.1-1.1h10.3c0.6,0,1.1,0.5,1.1,1.1v10.3   C21,24.7,20.5,25.2,19.9,25.2z"/><path class="st28" d="M8.5,24.1V13.8c0-0.6,0.5-1.1,1.1-1.1h10.3"/><path class="st4" d="M21,13.8v10.3c0,0.6-0.5,1.1-1.1,1.1H9.6"/><g><g><circle class="st2" cx="14.7" cy="18.9" r="2.5"/><g><path class="st2" d="M18,16.7c0.2-0.2,0.1-0.6-0.2-0.9c-0.3-0.3-0.7-0.4-0.9-0.2c0,0-0.1,0.1-0.1,0.2c-0.1,0.4-0.3,0.7-0.6,1      l-0.7,0.7l0.6,0.6l0.7-0.7c0.3-0.3,0.6-0.5,1-0.6C17.9,16.8,18,16.7,18,16.7z"/><path class="st2" d="M11.4,21.2c-0.2,0.2-0.1,0.6,0.2,0.9c0.3,0.3,0.7,0.4,0.9,0.2c0,0,0.1-0.1,0.1-0.2c0.1-0.4,0.3-0.7,0.6-1      l0.7-0.7l-0.6-0.6l-0.7,0.7c-0.3,0.3-0.6,0.5-1,0.6C11.5,21.1,11.5,21.1,11.4,21.2z"/></g><g><path class="st2" d="M16.2,15.5c0-0.2-0.1-0.4-0.4-0.5c-0.3-0.1-0.6,0-0.6,0.2c0,0,0,0.1,0,0.1c0.1,0.3,0.1,0.6,0,0.8L15,16.8      l0.6,0.1l0.2-0.7c0.1-0.3,0.2-0.5,0.4-0.7C16.2,15.6,16.2,15.6,16.2,15.5z"/><path class="st2" d="M13.3,22.4c0,0.2,0.1,0.4,0.4,0.5c0.3,0.1,0.6,0,0.6-0.2c0,0,0-0.1,0-0.1c-0.1-0.3-0.1-0.6,0-0.8l0.2-0.7      l-0.6-0.1l-0.2,0.7c-0.1,0.3-0.2,0.5-0.4,0.7C13.3,22.3,13.3,22.3,13.3,22.4z"/></g><g><path class="st2" d="M12.5,15.9c-0.1-0.1-0.4-0.1-0.6,0.1c-0.2,0.2-0.3,0.5-0.1,0.6c0,0,0.1,0.1,0.1,0.1      c0.3,0.1,0.5,0.2,0.7,0.4l0.5,0.5l0.4-0.4L13,16.8c-0.2-0.2-0.4-0.4-0.4-0.7C12.6,16,12.5,16,12.5,15.9z"/><path class="st2" d="M17,21.9c0.1,0.1,0.4,0.1,0.6-0.1c0.2-0.2,0.3-0.5,0.1-0.6c0,0-0.1-0.1-0.1-0.1c-0.3-0.1-0.5-0.2-0.7-0.4      l-0.5-0.5L16,20.6l0.5,0.5c0.2,0.2,0.4,0.4,0.4,0.7C16.9,21.8,16.9,21.9,17,21.9z"/></g><g><path class="st2" d="M11,19.4c-0.2,0-0.3,0.3-0.2,0.6c0.1,0.3,0.3,0.5,0.5,0.4c0,0,0.1,0,0.1-0.1c0.2-0.2,0.4-0.3,0.7-0.4      l0.7-0.2l-0.1-0.6L12,19.4c-0.3,0.1-0.6,0.1-0.8,0C11.1,19.4,11.1,19.4,11,19.4z"/><path class="st2" d="M18.4,18.5c0.2,0,0.3-0.3,0.2-0.6c-0.1-0.3-0.3-0.5-0.5-0.4c0,0-0.1,0-0.1,0.1c-0.2,0.2-0.4,0.3-0.7,0.4      l-0.7,0.2l0.1,0.6l0.7-0.2c0.3-0.1,0.6-0.1,0.8,0C18.3,18.5,18.4,18.5,18.4,18.5z"/></g><g><path class="st2" d="M14.4,14.9c-0.1-0.2-0.4-0.4-0.8-0.3c-0.4,0.1-0.7,0.4-0.6,0.6c0,0.1,0.1,0.1,0.1,0.2      c0.3,0.3,0.5,0.6,0.6,1l0.2,0.9l0.8-0.2l-0.2-0.9c-0.1-0.4-0.1-0.8,0-1.1C14.4,15.1,14.5,15,14.4,14.9z"/><path class="st2" d="M15,22.9c0.1,0.2,0.4,0.4,0.8,0.3c0.4-0.1,0.7-0.4,0.6-0.6c0-0.1-0.1-0.1-0.1-0.2c-0.3-0.3-0.5-0.6-0.6-1      l-0.2-0.9l-0.8,0.2l0.2,0.9c0.1,0.4,0.1,0.8,0,1.1C15,22.8,15,22.9,15,22.9z"/></g><g><path class="st2" d="M11.1,17.2c-0.2-0.1-0.5,0.2-0.6,0.6c-0.1,0.4,0,0.8,0.3,0.8c0.1,0,0.1,0,0.2,0c0.4-0.1,0.8-0.1,1.1,0      l0.9,0.2l0.2-0.8l-0.9-0.2c-0.4-0.1-0.7-0.3-1-0.6C11.2,17.2,11.2,17.2,11.1,17.2z"/><path class="st2" d="M18.3,20.7c0.2,0.1,0.5-0.2,0.6-0.6c0.1-0.4,0-0.8-0.3-0.8c-0.1,0-0.1,0-0.2,0c-0.4,0.1-0.8,0.1-1.1,0      L16.5,19l-0.2,0.8l0.9,0.2c0.4,0.1,0.7,0.3,1,0.6C18.2,20.6,18.3,20.7,18.3,20.7z"/></g><g><path class="st9" d="M15.1,18l0.3-0.6c0.2,0.1,0.4,0.2,0.6,0.4l-0.5,0.5C15.4,18.1,15.2,18,15.1,18z"/></g><g><path class="st9" d="M14,18.2l-0.5-0.5c0.3-0.3,0.8-0.5,1.2-0.5l0,0.7C14.5,17.9,14.2,18,14,18.2z"/></g></g></g><g><circle class="st2" cx="7.1" cy="5.6" r="0.5"/><circle class="st2" cx="9.7" cy="5.6" r="0.5"/><circle class="st2" cx="12.3" cy="5.6" r="0.5"/></g><g><path class="st4" d="M29.6,31.8c0,1-0.8,1.8-1.8,1.8s-1.8-0.8-1.8-1.8"/><path class="st4" d="M38.5,31.8c0,0.6-0.5,1.2-1.2,1.2s-1.2-0.5-1.2-1.2"/><path class="st4" d="M29.6,31.8c0-1.8,1.5-3.3,3.3-3.3c1.8,0,3.3,1.5,3.3,3.3"/><path class="st4" d="M38.5,31.7v-1.3c0-2.2,1.8-3.9,3.9-3.9h0c1.4,0,2.7-0.5,3.7-1.5l0.7-0.7"/></g><g><circle class="st3" cx="25.9" cy="31.2" r="0.7"/><path class="st4" d="M25.9,30.5c0.4,0,0.7,0.3,0.7,0.7s-0.3,0.7-0.7,0.7s-0.7-0.3-0.7-0.7"/><path class="st29" d="M25.3,31.2c0-0.4,0.3-0.7,0.7-0.7"/></g><g><circle class="st3" cx="32.7" cy="28.5" r="0.7"/><path class="st4" d="M32.7,27.8c0.4,0,0.7,0.3,0.7,0.7s-0.3,0.7-0.7,0.7c-0.4,0-0.7-0.3-0.7-0.7"/><path class="st29" d="M32,28.5c0-0.4,0.3-0.7,0.7-0.7"/></g><g><circle class="st3" cx="37.3" cy="33" r="0.7"/><path class="st4" d="M37.3,32.3c0.4,0,0.7,0.3,0.7,0.7c0,0.4-0.3,0.7-0.7,0.7s-0.7-0.3-0.7-0.7"/><path class="st29" d="M36.7,33c0-0.4,0.3-0.7,0.7-0.7"/></g><g><circle class="st3" cx="46.9" cy="24.1" r="0.7"/><path class="st4" d="M46.9,23.4c0.4,0,0.7,0.3,0.7,0.7c0,0.4-0.3,0.7-0.7,0.7c-0.4,0-0.7-0.3-0.7-0.7"/><path class="st29" d="M46.2,24.1c0-0.4,0.3-0.7,0.7-0.7"/></g><g><path class="st2" d="M45.9,37.6c-6.5,0-11.8,5.3-11.8,11.8c0,6.5,5.3,11.8,11.8,11.8c6.5,0,11.8-5.3,11.8-11.8H45.9V37.6z"/><path class="st6" d="M45.9,34.2v15.1H61C61,41,54.2,34.2,45.9,34.2z"/><polyline class="st4" points="45.9,34.2 45.9,49.4 61,49.4   "/></g></g></svg>