<?xml version="1.0" ?><svg style="enable-background:new 0 0 64 64;" version="1.1" viewBox="0 0 64 64" xml:space="preserve" xmlns="http://www.w3.org/2000/svg" xmlns:xlink="http://www.w3.org/1999/xlink"><style type="text/css">
	.st0{fill:#75C6A8;}
	.st1{fill:#57B5B5;}
	.st2{fill:#263047;}
	.st3{fill:#DB7158;}
	.st4{fill:none;stroke:#263047;stroke-width:0.5;stroke-linecap:round;stroke-miterlimit:10;}
	.st5{fill:none;stroke:#EA8B78;stroke-width:2;stroke-linecap:round;stroke-miterlimit:10;}
	.st6{fill:#E89715;}
	.st7{fill:none;stroke:#263047;stroke-linecap:round;stroke-miterlimit:10;}
	.st8{fill:none;stroke:#263047;stroke-width:0.5;stroke-linecap:round;stroke-linejoin:round;stroke-miterlimit:10;}
	.st9{fill:#456BA8;}
	.st10{fill:#9EC6B8;}
	.st11{fill:#C14F46;}
	.st12{fill:#BFD8D0;}
	.st13{fill:#E57417;}
	.st14{fill:none;stroke:#9EC6B8;stroke-width:0.75;stroke-linecap:round;stroke-linejoin:round;stroke-miterlimit:10;}
	.st15{fill:#FFFFFF;}
	.st16{fill:#D8EAE3;}
	.st17{fill:none;stroke:#DB7158;stroke-linecap:round;stroke-miterlimit:10;}
	.st18{fill:none;stroke:#BFD8D0;stroke-width:0.5;stroke-linecap:round;stroke-miterlimit:10;}
	.st19{fill:none;stroke:#263047;stroke-width:0.5;stroke-linecap:round;stroke-miterlimit:10;stroke-dasharray:1.0458,1.0458;}
	.st20{fill:#75C6A8;stroke:#75C6A8;stroke-width:0.25;stroke-linejoin:round;stroke-miterlimit:10;}
	.st21{fill:#EF8873;}
	.st22{fill:none;stroke:#263047;stroke-width:0.5;stroke-miterlimit:10;}
	.st23{fill:none;stroke:#263047;stroke-width:0.5;stroke-linecap:round;stroke-miterlimit:10;stroke-dasharray:1.8125,1.8125;}
	.st24{fill:none;stroke:#263047;stroke-linecap:round;stroke-miterlimit:10;stroke-dasharray:1.912,1.912;}
	.st25{fill:none;}
	.st26{fill:none;stroke:#EA8B78;stroke-linecap:round;stroke-miterlimit:10;}
	.st27{fill:none;stroke:#263047;stroke-width:3;stroke-miterlimit:10;}
	.st28{fill:none;stroke:#BFD8D0;stroke-miterlimit:10;}
	.st29{fill:none;stroke:#BFD8D0;stroke-width:0.5;stroke-miterlimit:10;}
	.st30{fill:none;stroke:#9EC6B8;stroke-width:0.5;stroke-miterlimit:10;}
	.st31{fill:none;stroke:#75C6A8;stroke-width:0.5;stroke-miterlimit:10;}
	.st32{fill:none;stroke:#F9F9F9;stroke-width:0.5;stroke-linecap:round;stroke-linejoin:round;stroke-miterlimit:10;}
	.st33{fill:none;stroke:#9EC6B8;stroke-width:0.5;stroke-linecap:round;stroke-linejoin:round;stroke-miterlimit:10;}
	.st34{fill:#EA8B78;}
	.st35{fill:none;stroke:#EA8B78;stroke-width:0.75;stroke-linecap:round;stroke-miterlimit:10;}
</style><g id="Layer_1"/><g id="artworks"><path class="st3" d="M38.2,33.3l-5.9,1.1c-0.6,0.1-1.1-0.4-1-1l1.1-5.9h5.7V33.3z"/><path class="st11" d="M32.2,28.8c0.4,1.9,1.1,3.6,2,5.2l4-0.8v-5.7h-5.7L32.2,28.8z"/><path class="st11" d="M32.2,28.8c0.4,1.9,1.1,3.6,2,5.2l4-0.8v-5.7h-5.7L32.2,28.8z"/><g><path class="st13" d="M11.4,38.2h-0.8c-0.7,0-1.4-0.6-1.4-1.4v-0.2c0-0.7,0.6-1.4,1.4-1.4h0.8V38.2z"/><path class="st13" d="M26.9,35.3h0.8c0.7,0,1.4,0.6,1.4,1.4v0.2c0,0.7-0.6,1.4-1.4,1.4h-0.8V35.3z"/><path class="st12" d="M19,43c-8.4,0-15.3,6.4-16,14.7C3,58.3,3.4,58.9,3.9,59c4.5,1.3,9.6,2,15.1,2s10.6-0.7,15.1-2    c0.6-0.2,1-0.7,0.9-1.3C34.3,49.5,27.4,43,19,43z"/><path class="st10" d="M25.6,44.4c-2-0.9-4.2-1.4-6.6-1.4c-1.2,0-2.4,0.2-3.6,0.4c0,0,0,0.1,0,0.1c0,1.2,2.4,2.1,5.3,2.1    C22.9,45.7,24.7,45.2,25.6,44.4z"/><path class="st6" d="M19,43c-1.7,0-3.4,0.3-5,0.8c0.7,2.8,2.6,5.1,5,6.5c2.4-1.4,4.3-3.7,5-6.5C22.4,43.3,20.7,43,19,43z"/><path class="st13" d="M17,43.2c-0.5,0.1-1.1,0.2-1.6,0.3c0,0,0,0,0,0c0,0,0,0.1,0,0.1c0,1.2,2.4,2.1,5.3,2.1c1,0,1.9-0.1,2.7-0.3    c0.2-0.5,0.4-1,0.6-1.5c-0.5-0.2-0.9-0.3-1.4-0.4c-0.2,0-0.3-0.1-0.5-0.1c-0.3-0.1-0.7-0.1-1.1-0.2c-0.2,0-0.3,0-0.5-0.1    c-0.5,0-1-0.1-1.5-0.1c-0.6,0-1.1,0-1.7,0.1C17.2,43.2,17.1,43.2,17,43.2z"/><path class="st14" d="M14,43.8c0.7,2.8,2.6,5.1,5,6.5c2.4-1.4,4.3-3.7,5-6.5"/><ellipse class="st6" cx="19" cy="36.4" rx="8.7" ry="7.9"/><path class="st2" d="M19,28.5c-3.9,0-7.3,2.4-8.3,5.7c1,0.1,2,0.2,3.1,0.2c3,0,5.7-0.4,7.8-1.1c1.1-0.4,2.3-0.3,3.4,0    c0.7,0.2,1.4,0.4,2.2,0.6C26,30.7,22.8,28.5,19,28.5z"/><path class="st4" d="M17,39.6c1.2-1.2,3.1-1.2,4.2,0"/><g><g><path class="st4" d="M16.7,36.8c-0.7,0.6-2,0.6-2.7,0"/><path class="st4" d="M16.7,36.8c-0.8,0.1-1.6-0.3-1.8-0.9"/></g><g><path class="st4" d="M21.3,36.8c0.7,0.6,2,0.6,2.7,0"/><path class="st4" d="M21.3,36.8c0.8,0.1,1.6-0.3,1.8-0.9"/></g></g><ellipse class="st10" cx="19" cy="53.7" rx="0.8" ry="0.5" transform="matrix(0.7071 -0.7071 0.7071 0.7071 -32.4126 29.1659)"/><ellipse class="st10" cx="19" cy="57" rx="0.8" ry="0.5" transform="matrix(0.7071 -0.7071 0.7071 0.7071 -34.7691 30.142)"/><g><rect class="st10" height="3.7" width="1.8" x="25.2" y="52.7"/><rect class="st10" height="3.7" transform="matrix(-1.836970e-16 1 -1 -1.836970e-16 80.7254 28.3935)" width="1.8" x="25.2" y="52.7"/></g></g><circle class="st3" cx="45" cy="20.7" r="15.9"/><path class="st4" d="M42.4,19.8c-0.6,0.6-1.5,0.6-2.1,0"/><polygon class="st2" points="51.4,10.7 47.5,10.7 48.6,7.6 44,12.8 46.5,12.8 44.1,15.8 47,15.8 44.8,19.4 50.6,14.1 48.9,14.1     "/><g><g><line class="st4" x1="46.9" x2="46.9" y1="6.6" y2="7.9"/><line class="st4" x1="46.9" x2="46.9" y1="20" y2="21.3"/></g><g><line class="st4" x1="43.2" x2="43.9" y1="7.6" y2="8.7"/><line class="st4" x1="49.9" x2="50.5" y1="19.2" y2="20.3"/></g><g><line class="st4" x1="40.6" x2="41.6" y1="10.3" y2="10.9"/><line class="st4" x1="52.1" x2="53.2" y1="17" y2="17.6"/></g></g><path class="st15" d="M44.8,10.3c-3.9,0.1-7,3.5-7,7.5l0,4.8h1.3v2.5c0,1.6,1.3,3,3,3h1.5v3h0.7c4.4,0,7.9-3.6,7.9-7.9v-5.7   C52.2,13.5,48.9,10.2,44.8,10.3z"/><path class="st4" d="M42.4,19.8c-0.6,0.6-1.5,0.6-2.1,0"/><polygon class="st2" points="51.4,10.7 47.5,10.7 48.6,7.6 44,12.8 46.5,12.8 44.1,15.8 47,15.8 44.8,19.4 50.6,14.1 48.9,14.1     "/><g><g><line class="st4" x1="46.9" x2="46.9" y1="6.6" y2="7.9"/><line class="st4" x1="46.9" x2="46.9" y1="20" y2="21.3"/></g><g><line class="st4" x1="43.2" x2="43.9" y1="7.6" y2="8.7"/><line class="st4" x1="49.9" x2="50.5" y1="19.2" y2="20.3"/></g><g><line class="st4" x1="40.6" x2="41.6" y1="10.3" y2="10.9"/><line class="st4" x1="52.1" x2="53.2" y1="17" y2="17.6"/></g></g><path class="st3" d="M21.4,21.1l0.9-1.5c0.1-0.2-0.1-0.4-0.3-0.3l-1.5,0.9c-0.5,0.3-1.1,0.3-1.6,0l-1.5-0.9   c-0.2-0.1-0.4,0.1-0.3,0.3l0.9,1.5c0.3,0.5,0.3,1.1,0,1.6L17,24.2c-0.1,0.2,0.1,0.4,0.3,0.3l1.5-0.9c0.5-0.3,1.1-0.3,1.6,0l1.5,0.9   c0.2,0.1,0.4-0.1,0.3-0.3l-0.9-1.5C21.1,22.2,21.1,21.6,21.4,21.1z"/><path class="st3" d="M43.5,42l1-0.3c0.1,0,0.1-0.2,0-0.3l-1-0.3c-0.3-0.1-0.6-0.4-0.7-0.7l-0.3-1c0-0.1-0.2-0.1-0.3,0l-0.3,1   c-0.1,0.3-0.4,0.6-0.7,0.7l-1,0.3c-0.1,0-0.1,0.2,0,0.3l1,0.3c0.3,0.1,0.6,0.4,0.7,0.7l0.3,1c0,0.1,0.2,0.1,0.3,0l0.3-1   C42.9,42.4,43.2,42.1,43.5,42z"/><circle class="st3" cx="22" cy="15.6" r="0.7"/><circle class="st3" cx="25.9" cy="27.9" r="0.3"/><circle class="st3" cx="25" cy="23.4" r="0.3"/><circle class="st3" cx="36" cy="38" r="0.8"/><circle class="st3" cx="33.6" cy="43" r="1.6"/><circle class="st3" cx="12.2" cy="26.2" r="0.8"/></g></svg>